solid insole
facet normal 0 0 0
 outer loop
  vertex 0.0 0.0 3.5
  vertex 128.25 0.0 3.5
  vertex 127.15280347119118 6.438936455450487 3.5
 endloop
endfacet
facet normal 0 0 0
 outer loop
  vertex 0.0 0.0 0.0
  vertex 127.15280347119118 6.438936455450487 0.0
  vertex 128.25 0.0 0.0
 endloop
endfacet
facet normal 0 0 0
 outer loop
  vertex 128.25 0.0 0.0
  vertex 127.15280347119118 6.438936455450487 0.0
  vertex 127.15280347119118 6.438936455450487 3.5
 endloop
endfacet
facet normal 0 0 0
 outer loop
  vertex 128.25 0.0 0.0
  vertex 127.15280347119118 6.438936455450487 3.5
  vertex 128.25 0.0 3.5
 endloop
endfacet
facet normal 0 0 0
 outer loop
  vertex 0.0 0.0 3.5
  vertex 127.15280347119118 6.438936455450487 3.5
  vertex 123.87998722157302 12.636925639544865 3.5
 endloop
endfacet
facet normal 0 0 0
 outer loop
  vertex 0.0 0.0 0.0
  vertex 123.87998722157302 12.636925639544865 0.0
  vertex 127.15280347119118 6.438936455450487 0.0
 endloop
endfacet
facet normal 0 0 0
 outer loop
  vertex 127.15280347119118 6.438936455450487 0.0
  vertex 123.87998722157302 12.636925639544865 0.0
  vertex 123.87998722157302 12.636925639544865 3.5
 endloop
endfacet
facet normal 0 0 0
 outer loop
  vertex 127.15280347119118 6.438936455450487 0.0
  vertex 123.87998722157302 12.636925639544865 3.5
  vertex 127.15280347119118 6.438936455450487 3.5
 endloop
endfacet
facet normal 0 0 0
 outer loop
  vertex 0.0 0.0 3.5
  vertex 123.87998722157302 12.636925639544865 3.5
  vertex 118.48755004457253 18.366055074989987 3.5
 endloop
endfacet
facet normal 0 0 0
 outer loop
  vertex 0.0 0.0 0.0
  vertex 118.48755004457253 18.366055074989987 0.0
  vertex 123.87998722157302 12.636925639544865 0.0
 endloop
endfacet
facet normal 0 0 0
 outer loop
  vertex 123.87998722157302 12.636925639544865 0.0
  vertex 118.48755004457253 18.366055074989987 0.0
  vertex 118.48755004457253 18.366055074989987 3.5
 endloop
endfacet
facet normal 0 0 0
 outer loop
  vertex 123.87998722157302 12.636925639544865 0.0
  vertex 118.48755004457253 18.366055074989987 3.5
  vertex 123.87998722157302 12.636925639544865 3.5
 endloop
endfacet
facet normal 0 0 0
 outer loop
  vertex 0.0 0.0 3.5
  vertex 118.48755004457253 18.366055074989987 3.5
  vertex 111.06775803535426 23.42365149746594 3.5
 endloop
endfacet
facet normal 0 0 0
 outer loop
  vertex 0.0 0.0 0.0
  vertex 111.06775803535426 23.42365149746594 0.0
  vertex 118.48755004457253 18.366055074989987 0.0
 endloop
endfacet
facet normal 0 0 0
 outer loop
  vertex 118.48755004457253 18.366055074989987 0.0
  vertex 111.06775803535426 23.42365149746594 0.0
  vertex 111.06775803535426 23.42365149746594 3.5
 endloop
endfacet
facet normal 0 0 0
 outer loop
  vertex 118.48755004457253 18.366055074989987 0.0
  vertex 111.06775803535426 23.42365149746594 3.5
  vertex 118.48755004457253 18.366055074989987 3.5
 endloop
endfacet
facet normal 0 0 0
 outer loop
  vertex 0.0 0.0 3.5
  vertex 111.06775803535426 23.42365149746594 3.5
  vertex 101.7475658923509 27.64288012182078 3.5
 endloop
endfacet
facet normal 0 0 0
 outer loop
  vertex 0.0 0.0 0.0
  vertex 101.7475658923509 27.64288012182078 0.0
  vertex 111.06775803535426 23.42365149746594 0.0
 endloop
endfacet
facet normal 0 0 0
 outer loop
  vertex 111.06775803535426 23.42365149746594 0.0
  vertex 101.7475658923509 27.64288012182078 0.0
  vertex 101.7475658923509 27.64288012182078 3.5
 endloop
endfacet
facet normal 0 0 0
 outer loop
  vertex 111.06775803535426 23.42365149746594 0.0
  vertex 101.7475658923509 27.64288012182078 3.5
  vertex 111.06775803535426 23.42365149746594 3.5
 endloop
endfacet
facet normal 0 0 0
 outer loop
  vertex 0.0 0.0 3.5
  vertex 101.7475658923509 27.64288012182078 3.5
  vertex 90.68644468717473 30.901071401240458 3.5
 endloop
endfacet
facet normal 0 0 0
 outer loop
  vertex 0.0 0.0 0.0
  vertex 90.68644468717473 30.901071401240458 0.0
  vertex 101.7475658923509 27.64288012182078 0.0
 endloop
endfacet
facet normal 0 0 0
 outer loop
  vertex 101.7475658923509 27.64288012182078 0.0
  vertex 90.68644468717473 30.901071401240458 0.0
  vertex 90.68644468717473 30.901071401240458 3.5
 endloop
endfacet
facet normal 0 0 0
 outer loop
  vertex 101.7475658923509 27.64288012182078 0.0
  vertex 90.68644468717473 30.901071401240458 3.5
  vertex 101.7475658923509 27.64288012182078 3.5
 endloop
endfacet
facet normal 0 0 0
 outer loop
  vertex 0.0 0.0 3.5
  vertex 90.68644468717473 30.901071401240458 3.5
  vertex 78.07365327036842 33.12525988691146 3.5
 endloop
endfacet
facet normal 0 0 0
 outer loop
  vertex 0.0 0.0 0.0
  vertex 78.07365327036842 33.12525988691146 0.0
  vertex 90.68644468717473 30.901071401240458 0.0
 endloop
endfacet
facet normal 0 0 0
 outer loop
  vertex 90.68644468717473 30.901071401240458 0.0
  vertex 78.07365327036842 33.12525988691146 0.0
  vertex 78.07365327036842 33.12525988691146 3.5
 endloop
endfacet
facet normal 0 0 0
 outer loop
  vertex 90.68644468717473 30.901071401240458 0.0
  vertex 78.07365327036842 33.12525988691146 3.5
  vertex 90.68644468717473 30.901071401240458 3.5
 endloop
endfacet
facet normal 0 0 0
 outer loop
  vertex 0.0 0.0 3.5
  vertex 78.07365327036842 33.12525988691146 3.5
  vertex 64.12500000000001 34.29460598986377 3.5
 endloop
endfacet
facet normal 0 0 0
 outer loop
  vertex 0.0 0.0 0.0
  vertex 64.12500000000001 34.29460598986377 0.0
  vertex 78.07365327036842 33.12525988691146 0.0
 endloop
endfacet
facet normal 0 0 0
 outer loop
  vertex 78.07365327036842 33.12525988691146 0.0
  vertex 64.12500000000001 34.29460598986377 0.0
  vertex 64.12500000000001 34.29460598986377 3.5
 endloop
endfacet
facet normal 0 0 0
 outer loop
  vertex 78.07365327036842 33.12525988691146 0.0
  vertex 64.12500000000001 34.29460598986377 3.5
  vertex 78.07365327036842 33.12525988691146 3.5
 endloop
endfacet
facet normal 0 0 0
 outer loop
  vertex 0.0 0.0 3.5
  vertex 64.12500000000001 34.29460598986377 3.5
  vertex 49.079150200822774 34.439579249332034 3.5
 endloop
endfacet
facet normal 0 0 0
 outer loop
  vertex 0.0 0.0 0.0
  vertex 49.079150200822774 34.439579249332034 0.0
  vertex 64.12500000000001 34.29460598986377 0.0
 endloop
endfacet
facet normal 0 0 0
 outer loop
  vertex 64.12500000000001 34.29460598986377 0.0
  vertex 49.079150200822774 34.439579249332034 0.0
  vertex 49.079150200822774 34.439579249332034 3.5
 endloop
endfacet
facet normal 0 0 0
 outer loop
  vertex 64.12500000000001 34.29460598986377 0.0
  vertex 49.079150200822774 34.439579249332034 3.5
  vertex 64.12500000000001 34.29460598986377 3.5
 endloop
endfacet
facet normal 0 0 0
 outer loop
  vertex 0.0 0.0 3.5
  vertex 49.079150200822774 34.439579249332034 3.5
  vertex 33.19354253439828 33.63799704078533 3.5
 endloop
endfacet
facet normal 0 0 0
 outer loop
  vertex 0.0 0.0 0.0
  vertex 33.19354253439828 33.63799704078533 0.0
  vertex 49.079150200822774 34.439579249332034 0.0
 endloop
endfacet
facet normal 0 0 0
 outer loop
  vertex 49.079150200822774 34.439579249332034 0.0
  vertex 33.19354253439828 33.63799704078533 0.0
  vertex 33.19354253439828 33.63799704078533 3.5
 endloop
endfacet
facet normal 0 0 0
 outer loop
  vertex 49.079150200822774 34.439579249332034 0.0
  vertex 33.19354253439828 33.63799704078533 3.5
  vertex 49.079150200822774 34.439579249332034 3.5
 endloop
endfacet
facet normal 0 0 0
 outer loop
  vertex 0.0 0.0 3.5
  vertex 33.19354253439828 33.63799704078533 3.5
  vertex 16.73998415222163 32.008220929317126 3.5
 endloop
endfacet
facet normal 0 0 0
 outer loop
  vertex 0.0 0.0 0.0
  vertex 16.73998415222163 32.008220929317126 0.0
  vertex 33.19354253439828 33.63799704078533 0.0
 endloop
endfacet
facet normal 0 0 0
 outer loop
  vertex 33.19354253439828 33.63799704078533 0.0
  vertex 16.73998415222163 32.008220929317126 0.0
  vertex 16.73998415222163 32.008220929317126 3.5
 endloop
endfacet
facet normal 0 0 0
 outer loop
  vertex 33.19354253439828 33.63799704078533 0.0
  vertex 16.73998415222163 32.008220929317126 3.5
  vertex 33.19354253439828 33.63799704078533 3.5
 endloop
endfacet
facet normal 0 0 0
 outer loop
  vertex 0.0 0.0 3.5
  vertex 16.73998415222163 32.008220929317126 3.5
  vertex 7.853047599532402e-15 29.7 3.5
 endloop
endfacet
facet normal 0 0 0
 outer loop
  vertex 0.0 0.0 0.0
  vertex 7.853047599532402e-15 29.7 0.0
  vertex 16.73998415222163 32.008220929317126 0.0
 endloop
endfacet
facet normal 0 0 0
 outer loop
  vertex 16.73998415222163 32.008220929317126 0.0
  vertex 7.853047599532402e-15 29.7 0.0
  vertex 7.853047599532402e-15 29.7 3.5
 endloop
endfacet
facet normal 0 0 0
 outer loop
  vertex 16.73998415222163 32.008220929317126 0.0
  vertex 7.853047599532402e-15 29.7 3.5
  vertex 16.73998415222163 32.008220929317126 3.5
 endloop
endfacet
facet normal 0 0 0
 outer loop
  vertex 0.0 0.0 3.5
  vertex 7.853047599532402e-15 29.7 3.5
  vertex -16.739984152221616 29.445912382802167 3.5
 endloop
endfacet
facet normal 0 0 0
 outer loop
  vertex 0.0 0.0 0.0
  vertex -16.739984152221616 29.445912382802167 0.0
  vertex 7.853047599532402e-15 29.7 0.0
 endloop
endfacet
facet normal 0 0 0
 outer loop
  vertex 7.853047599532402e-15 29.7 0.0
  vertex -16.739984152221616 29.445912382802167 0.0
  vertex -16.739984152221616 29.445912382802167 3.5
 endloop
endfacet
facet normal 0 0 0
 outer loop
  vertex 7.853047599532402e-15 29.7 0.0
  vertex -16.739984152221616 29.445912382802167 3.5
  vertex 7.853047599532402e-15 29.7 3.5
 endloop
endfacet
facet normal 0 0 0
 outer loop
  vertex 0.0 0.0 3.5
  vertex -16.739984152221616 29.445912382802167 3.5
  vertex -33.19354253439827 28.687997040785326 3.5
 endloop
endfacet
facet normal 0 0 0
 outer loop
  vertex 0.0 0.0 0.0
  vertex -33.19354253439827 28.687997040785326 0.0
  vertex -16.739984152221616 29.445912382802167 0.0
 endloop
endfacet
facet normal 0 0 0
 outer loop
  vertex -16.739984152221616 29.445912382802167 0.0
  vertex -33.19354253439827 28.687997040785326 0.0
  vertex -33.19354253439827 28.687997040785326 3.5
 endloop
endfacet
facet normal 0 0 0
 outer loop
  vertex -16.739984152221616 29.445912382802167 0.0
  vertex -33.19354253439827 28.687997040785326 3.5
  vertex -16.739984152221616 29.445912382802167 3.5
 endloop
endfacet
facet normal 0 0 0
 outer loop
  vertex 0.0 0.0 3.5
  vertex -33.19354253439827 28.687997040785326 3.5
  vertex -49.07915020082273 27.43922211558522 3.5
 endloop
endfacet
facet normal 0 0 0
 outer loop
  vertex 0.0 0.0 0.0
  vertex -49.07915020082273 27.43922211558522 0.0
  vertex -33.19354253439827 28.687997040785326 0.0
 endloop
endfacet
facet normal 0 0 0
 outer loop
  vertex -33.19354253439827 28.687997040785326 0.0
  vertex -49.07915020082273 27.43922211558522 0.0
  vertex -49.07915020082273 27.43922211558522 3.5
 endloop
endfacet
facet normal 0 0 0
 outer loop
  vertex -33.19354253439827 28.687997040785326 0.0
  vertex -49.07915020082273 27.43922211558522 3.5
  vertex -33.19354253439827 28.687997040785326 3.5
 endloop
endfacet
facet normal 0 0 0
 outer loop
  vertex 0.0 0.0 3.5
  vertex -49.07915020082273 27.43922211558522 3.5
  vertex -64.12499999999997 25.720954492397826 3.5
 endloop
endfacet
facet normal 0 0 0
 outer loop
  vertex 0.0 0.0 0.0
  vertex -64.12499999999997 25.720954492397826 0.0
  vertex -49.07915020082273 27.43922211558522 0.0
 endloop
endfacet
facet normal 0 0 0
 outer loop
  vertex -49.07915020082273 27.43922211558522 0.0
  vertex -64.12499999999997 25.720954492397826 0.0
  vertex -64.12499999999997 25.720954492397826 3.5
 endloop
endfacet
facet normal 0 0 0
 outer loop
  vertex -49.07915020082273 27.43922211558522 0.0
  vertex -64.12499999999997 25.720954492397826 3.5
  vertex -49.07915020082273 27.43922211558522 3.5
 endloop
endfacet
facet normal 0 0 0
 outer loop
  vertex 0.0 0.0 3.5
  vertex -64.12499999999997 25.720954492397826 3.5
  vertex -78.07365327036842 23.562594206649685 3.5
 endloop
endfacet
facet normal 0 0 0
 outer loop
  vertex 0.0 0.0 0.0
  vertex -78.07365327036842 23.562594206649685 0.0
  vertex -64.12499999999997 25.720954492397826 0.0
 endloop
endfacet
facet normal 0 0 0
 outer loop
  vertex -64.12499999999997 25.720954492397826 0.0
  vertex -78.07365327036842 23.562594206649685 0.0
  vertex -78.07365327036842 23.562594206649685 3.5
 endloop
endfacet
facet normal 0 0 0
 outer loop
  vertex -64.12499999999997 25.720954492397826 0.0
  vertex -78.07365327036842 23.562594206649685 3.5
  vertex -64.12499999999997 25.720954492397826 3.5
 endloop
endfacet
facet normal 0 0 0
 outer loop
  vertex 0.0 0.0 3.5
  vertex -78.07365327036842 23.562594206649685 3.5
  vertex -90.68644468717471 21.001071401240463 3.5
 endloop
endfacet
facet normal 0 0 0
 outer loop
  vertex 0.0 0.0 0.0
  vertex -90.68644468717471 21.001071401240463 0.0
  vertex -78.07365327036842 23.562594206649685 0.0
 endloop
endfacet
facet normal 0 0 0
 outer loop
  vertex -78.07365327036842 23.562594206649685 0.0
  vertex -90.68644468717471 21.001071401240463 0.0
  vertex -90.68644468717471 21.001071401240463 3.5
 endloop
endfacet
facet normal 0 0 0
 outer loop
  vertex -78.07365327036842 23.562594206649685 0.0
  vertex -90.68644468717471 21.001071401240463 3.5
  vertex -78.07365327036842 23.562594206649685 3.5
 endloop
endfacet
facet normal 0 0 0
 outer loop
  vertex 0.0 0.0 3.5
  vertex -90.68644468717471 21.001071401240463 3.5
  vertex -101.74756589235089 18.080214441559008 3.5
 endloop
endfacet
facet normal 0 0 0
 outer loop
  vertex 0.0 0.0 0.0
  vertex -101.74756589235089 18.080214441559008 0.0
  vertex -90.68644468717471 21.001071401240463 0.0
 endloop
endfacet
facet normal 0 0 0
 outer loop
  vertex -90.68644468717471 21.001071401240463 0.0
  vertex -101.74756589235089 18.080214441559008 0.0
  vertex -101.74756589235089 18.080214441559008 3.5
 endloop
endfacet
facet normal 0 0 0
 outer loop
  vertex -90.68644468717471 21.001071401240463 0.0
  vertex -101.74756589235089 18.080214441559008 3.5
  vertex -90.68644468717471 21.001071401240463 3.5
 endloop
endfacet
facet normal 0 0 0
 outer loop
  vertex 0.0 0.0 3.5
  vertex -101.74756589235089 18.080214441559008 3.5
  vertex -111.06775803535426 14.849999999999998 3.5
 endloop
endfacet
facet normal 0 0 0
 outer loop
  vertex 0.0 0.0 0.0
  vertex -111.06775803535426 14.849999999999998 0.0
  vertex -101.74756589235089 18.080214441559008 0.0
 endloop
endfacet
facet normal 0 0 0
 outer loop
  vertex -101.74756589235089 18.080214441559008 0.0
  vertex -111.06775803535426 14.849999999999998 0.0
  vertex -111.06775803535426 14.849999999999998 3.5
 endloop
endfacet
facet normal 0 0 0
 outer loop
  vertex -101.74756589235089 18.080214441559008 0.0
  vertex -111.06775803535426 14.849999999999998 3.5
  vertex -101.74756589235089 18.080214441559008 3.5
 endloop
endfacet
facet normal 0 0 0
 outer loop
  vertex 0.0 0.0 3.5
  vertex -111.06775803535426 14.849999999999998 3.5
  vertex -118.48755004457253 11.36569794124317 3.5
 endloop
endfacet
facet normal 0 0 0
 outer loop
  vertex 0.0 0.0 0.0
  vertex -118.48755004457253 11.36569794124317 0.0
  vertex -111.06775803535426 14.849999999999998 0.0
 endloop
endfacet
facet normal 0 0 0
 outer loop
  vertex -111.06775803535426 14.849999999999998 0.0
  vertex -118.48755004457253 11.36569794124317 0.0
  vertex -118.48755004457253 11.36569794124317 3.5
 endloop
endfacet
facet normal 0 0 0
 outer loop
  vertex -111.06775803535426 14.849999999999998 0.0
  vertex -118.48755004457253 11.36569794124317 3.5
  vertex -111.06775803535426 14.849999999999998 3.5
 endloop
endfacet
facet normal 0 0 0
 outer loop
  vertex 0.0 0.0 3.5
  vertex -118.48755004457253 11.36569794124317 3.5
  vertex -123.879987221573 7.6869256395448735 3.5
 endloop
endfacet
facet normal 0 0 0
 outer loop
  vertex 0.0 0.0 0.0
  vertex -123.879987221573 7.6869256395448735 0.0
  vertex -118.48755004457253 11.36569794124317 0.0
 endloop
endfacet
facet normal 0 0 0
 outer loop
  vertex -118.48755004457253 11.36569794124317 0.0
  vertex -123.879987221573 7.6869256395448735 0.0
  vertex -123.879987221573 7.6869256395448735 3.5
 endloop
endfacet
facet normal 0 0 0
 outer loop
  vertex -118.48755004457253 11.36569794124317 0.0
  vertex -123.879987221573 7.6869256395448735 3.5
  vertex -118.48755004457253 11.36569794124317 3.5
 endloop
endfacet
facet normal 0 0 0
 outer loop
  vertex 0.0 0.0 3.5
  vertex -123.879987221573 7.6869256395448735 3.5
  vertex -127.15280347119118 3.8766279089355438 3.5
 endloop
endfacet
facet normal 0 0 0
 outer loop
  vertex 0.0 0.0 0.0
  vertex -127.15280347119118 3.8766279089355438 0.0
  vertex -123.879987221573 7.6869256395448735 0.0
 endloop
endfacet
facet normal 0 0 0
 outer loop
  vertex -123.879987221573 7.6869256395448735 0.0
  vertex -127.15280347119118 3.8766279089355438 0.0
  vertex -127.15280347119118 3.8766279089355438 3.5
 endloop
endfacet
facet normal 0 0 0
 outer loop
  vertex -123.879987221573 7.6869256395448735 0.0
  vertex -127.15280347119118 3.8766279089355438 3.5
  vertex -123.879987221573 7.6869256395448735 3.5
 endloop
endfacet
facet normal 0 0 0
 outer loop
  vertex 0.0 0.0 3.5
  vertex -127.15280347119118 3.8766279089355438 3.5
  vertex -128.25 3.637200993467639e-15 3.5
 endloop
endfacet
facet normal 0 0 0
 outer loop
  vertex 0.0 0.0 0.0
  vertex -128.25 3.637200993467639e-15 0.0
  vertex -127.15280347119118 3.8766279089355438 0.0
 endloop
endfacet
facet normal 0 0 0
 outer loop
  vertex -127.15280347119118 3.8766279089355438 0.0
  vertex -128.25 3.637200993467639e-15 0.0
  vertex -128.25 3.637200993467639e-15 3.5
 endloop
endfacet
facet normal 0 0 0
 outer loop
  vertex -127.15280347119118 3.8766279089355438 0.0
  vertex -128.25 3.637200993467639e-15 3.5
  vertex -127.15280347119118 3.8766279089355438 3.5
 endloop
endfacet
facet normal 0 0 0
 outer loop
  vertex 0.0 0.0 3.5
  vertex -128.25 3.637200993467639e-15 3.5
  vertex -127.15280347119118 -3.8766279089355375 3.5
 endloop
endfacet
facet normal 0 0 0
 outer loop
  vertex 0.0 0.0 0.0
  vertex -127.15280347119118 -3.8766279089355375 0.0
  vertex -128.25 3.637200993467639e-15 0.0
 endloop
endfacet
facet normal 0 0 0
 outer loop
  vertex -128.25 3.637200993467639e-15 0.0
  vertex -127.15280347119118 -3.8766279089355375 0.0
  vertex -127.15280347119118 -3.8766279089355375 3.5
 endloop
endfacet
facet normal 0 0 0
 outer loop
  vertex -128.25 3.637200993467639e-15 0.0
  vertex -127.15280347119118 -3.8766279089355375 3.5
  vertex -128.25 3.637200993467639e-15 3.5
 endloop
endfacet
facet normal 0 0 0
 outer loop
  vertex 0.0 0.0 3.5
  vertex -127.15280347119118 -3.8766279089355375 3.5
  vertex -123.87998722157302 -7.686925639544867 3.5
 endloop
endfacet
facet normal 0 0 0
 outer loop
  vertex 0.0 0.0 0.0
  vertex -123.87998722157302 -7.686925639544867 0.0
  vertex -127.15280347119118 -3.8766279089355375 0.0
 endloop
endfacet
facet normal 0 0 0
 outer loop
  vertex -127.15280347119118 -3.8766279089355375 0.0
  vertex -123.87998722157302 -7.686925639544867 0.0
  vertex -123.87998722157302 -7.686925639544867 3.5
 endloop
endfacet
facet normal 0 0 0
 outer loop
  vertex -127.15280347119118 -3.8766279089355375 0.0
  vertex -123.87998722157302 -7.686925639544867 3.5
  vertex -127.15280347119118 -3.8766279089355375 3.5
 endloop
endfacet
facet normal 0 0 0
 outer loop
  vertex 0.0 0.0 3.5
  vertex -123.87998722157302 -7.686925639544867 3.5
  vertex -118.48755004457254 -11.365697941243162 3.5
 endloop
endfacet
facet normal 0 0 0
 outer loop
  vertex 0.0 0.0 0.0
  vertex -118.48755004457254 -11.365697941243162 0.0
  vertex -123.87998722157302 -7.686925639544867 0.0
 endloop
endfacet
facet normal 0 0 0
 outer loop
  vertex -123.87998722157302 -7.686925639544867 0.0
  vertex -118.48755004457254 -11.365697941243162 0.0
  vertex -118.48755004457254 -11.365697941243162 3.5
 endloop
endfacet
facet normal 0 0 0
 outer loop
  vertex -123.87998722157302 -7.686925639544867 0.0
  vertex -118.48755004457254 -11.365697941243162 3.5
  vertex -123.87998722157302 -7.686925639544867 3.5
 endloop
endfacet
facet normal 0 0 0
 outer loop
  vertex 0.0 0.0 3.5
  vertex -118.48755004457254 -11.365697941243162 3.5
  vertex -111.06775803535427 -14.84999999999999 3.5
 endloop
endfacet
facet normal 0 0 0
 outer loop
  vertex 0.0 0.0 0.0
  vertex -111.06775803535427 -14.84999999999999 0.0
  vertex -118.48755004457254 -11.365697941243162 0.0
 endloop
endfacet
facet normal 0 0 0
 outer loop
  vertex -118.48755004457254 -11.365697941243162 0.0
  vertex -111.06775803535427 -14.84999999999999 0.0
  vertex -111.06775803535427 -14.84999999999999 3.5
 endloop
endfacet
facet normal 0 0 0
 outer loop
  vertex -118.48755004457254 -11.365697941243162 0.0
  vertex -111.06775803535427 -14.84999999999999 3.5
  vertex -118.48755004457254 -11.365697941243162 3.5
 endloop
endfacet
facet normal 0 0 0
 outer loop
  vertex 0.0 0.0 3.5
  vertex -111.06775803535427 -14.84999999999999 3.5
  vertex -101.7475658923509 -18.080214441559004 3.5
 endloop
endfacet
facet normal 0 0 0
 outer loop
  vertex 0.0 0.0 0.0
  vertex -101.7475658923509 -18.080214441559004 0.0
  vertex -111.06775803535427 -14.84999999999999 0.0
 endloop
endfacet
facet normal 0 0 0
 outer loop
  vertex -111.06775803535427 -14.84999999999999 0.0
  vertex -101.7475658923509 -18.080214441559004 0.0
  vertex -101.7475658923509 -18.080214441559004 3.5
 endloop
endfacet
facet normal 0 0 0
 outer loop
  vertex -111.06775803535427 -14.84999999999999 0.0
  vertex -101.7475658923509 -18.080214441559004 3.5
  vertex -111.06775803535427 -14.84999999999999 3.5
 endloop
endfacet
facet normal 0 0 0
 outer loop
  vertex 0.0 0.0 3.5
  vertex -101.7475658923509 -18.080214441559004 3.5
  vertex -90.68644468717477 -21.00107140124045 3.5
 endloop
endfacet
facet normal 0 0 0
 outer loop
  vertex 0.0 0.0 0.0
  vertex -90.68644468717477 -21.00107140124045 0.0
  vertex -101.7475658923509 -18.080214441559004 0.0
 endloop
endfacet
facet normal 0 0 0
 outer loop
  vertex -101.7475658923509 -18.080214441559004 0.0
  vertex -90.68644468717477 -21.00107140124045 0.0
  vertex -90.68644468717477 -21.00107140124045 3.5
 endloop
endfacet
facet normal 0 0 0
 outer loop
  vertex -101.7475658923509 -18.080214441559004 0.0
  vertex -90.68644468717477 -21.00107140124045 3.5
  vertex -101.7475658923509 -18.080214441559004 3.5
 endloop
endfacet
facet normal 0 0 0
 outer loop
  vertex 0.0 0.0 3.5
  vertex -90.68644468717477 -21.00107140124045 3.5
  vertex -78.07365327036845 -23.562594206649674 3.5
 endloop
endfacet
facet normal 0 0 0
 outer loop
  vertex 0.0 0.0 0.0
  vertex -78.07365327036845 -23.562594206649674 0.0
  vertex -90.68644468717477 -21.00107140124045 0.0
 endloop
endfacet
facet normal 0 0 0
 outer loop
  vertex -90.68644468717477 -21.00107140124045 0.0
  vertex -78.07365327036845 -23.562594206649674 0.0
  vertex -78.07365327036845 -23.562594206649674 3.5
 endloop
endfacet
facet normal 0 0 0
 outer loop
  vertex -90.68644468717477 -21.00107140124045 0.0
  vertex -78.07365327036845 -23.562594206649674 3.5
  vertex -90.68644468717477 -21.00107140124045 3.5
 endloop
endfacet
facet normal 0 0 0
 outer loop
  vertex 0.0 0.0 3.5
  vertex -78.07365327036845 -23.562594206649674 3.5
  vertex -64.12500000000006 -25.72095449239782 3.5
 endloop
endfacet
facet normal 0 0 0
 outer loop
  vertex 0.0 0.0 0.0
  vertex -64.12500000000006 -25.72095449239782 0.0
  vertex -78.07365327036845 -23.562594206649674 0.0
 endloop
endfacet
facet normal 0 0 0
 outer loop
  vertex -78.07365327036845 -23.562594206649674 0.0
  vertex -64.12500000000006 -25.72095449239782 0.0
  vertex -64.12500000000006 -25.72095449239782 3.5
 endloop
endfacet
facet normal 0 0 0
 outer loop
  vertex -78.07365327036845 -23.562594206649674 0.0
  vertex -64.12500000000006 -25.72095449239782 3.5
  vertex -78.07365327036845 -23.562594206649674 3.5
 endloop
endfacet
facet normal 0 0 0
 outer loop
  vertex 0.0 0.0 3.5
  vertex -64.12500000000006 -25.72095449239782 3.5
  vertex -49.07915020082273 -27.43922211558522 3.5
 endloop
endfacet
facet normal 0 0 0
 outer loop
  vertex 0.0 0.0 0.0
  vertex -49.07915020082273 -27.43922211558522 0.0
  vertex -64.12500000000006 -25.72095449239782 0.0
 endloop
endfacet
facet normal 0 0 0
 outer loop
  vertex -64.12500000000006 -25.72095449239782 0.0
  vertex -49.07915020082273 -27.43922211558522 0.0
  vertex -49.07915020082273 -27.43922211558522 3.5
 endloop
endfacet
facet normal 0 0 0
 outer loop
  vertex -64.12500000000006 -25.72095449239782 0.0
  vertex -49.07915020082273 -27.43922211558522 3.5
  vertex -64.12500000000006 -25.72095449239782 3.5
 endloop
endfacet
facet normal 0 0 0
 outer loop
  vertex 0.0 0.0 3.5
  vertex -49.07915020082273 -27.43922211558522 3.5
  vertex -33.19354253439827 -28.687997040785326 3.5
 endloop
endfacet
facet normal 0 0 0
 outer loop
  vertex 0.0 0.0 0.0
  vertex -33.19354253439827 -28.687997040785326 0.0
  vertex -49.07915020082273 -27.43922211558522 0.0
 endloop
endfacet
facet normal 0 0 0
 outer loop
  vertex -49.07915020082273 -27.43922211558522 0.0
  vertex -33.19354253439827 -28.687997040785326 0.0
  vertex -33.19354253439827 -28.687997040785326 3.5
 endloop
endfacet
facet normal 0 0 0
 outer loop
  vertex -49.07915020082273 -27.43922211558522 0.0
  vertex -33.19354253439827 -28.687997040785326 3.5
  vertex -49.07915020082273 -27.43922211558522 3.5
 endloop
endfacet
facet normal 0 0 0
 outer loop
  vertex 0.0 0.0 3.5
  vertex -33.19354253439827 -28.687997040785326 3.5
  vertex -16.73998415222162 -29.445912382802167 3.5
 endloop
endfacet
facet normal 0 0 0
 outer loop
  vertex 0.0 0.0 0.0
  vertex -16.73998415222162 -29.445912382802167 0.0
  vertex -33.19354253439827 -28.687997040785326 0.0
 endloop
endfacet
facet normal 0 0 0
 outer loop
  vertex -33.19354253439827 -28.687997040785326 0.0
  vertex -16.73998415222162 -29.445912382802167 0.0
  vertex -16.73998415222162 -29.445912382802167 3.5
 endloop
endfacet
facet normal 0 0 0
 outer loop
  vertex -33.19354253439827 -28.687997040785326 0.0
  vertex -16.73998415222162 -29.445912382802167 3.5
  vertex -33.19354253439827 -28.687997040785326 3.5
 endloop
endfacet
facet normal 0 0 0
 outer loop
  vertex 0.0 0.0 3.5
  vertex -16.73998415222162 -29.445912382802167 3.5
  vertex -2.3559142798597206e-14 -29.7 3.5
 endloop
endfacet
facet normal 0 0 0
 outer loop
  vertex 0.0 0.0 0.0
  vertex -2.3559142798597206e-14 -29.7 0.0
  vertex -16.73998415222162 -29.445912382802167 0.0
 endloop
endfacet
facet normal 0 0 0
 outer loop
  vertex -16.73998415222162 -29.445912382802167 0.0
  vertex -2.3559142798597206e-14 -29.7 0.0
  vertex -2.3559142798597206e-14 -29.7 3.5
 endloop
endfacet
facet normal 0 0 0
 outer loop
  vertex -16.73998415222162 -29.445912382802167 0.0
  vertex -2.3559142798597206e-14 -29.7 3.5
  vertex -16.73998415222162 -29.445912382802167 3.5
 endloop
endfacet
facet normal 0 0 0
 outer loop
  vertex 0.0 0.0 3.5
  vertex -2.3559142798597206e-14 -29.7 3.5
  vertex 16.739984152221574 -32.00822092931712 3.5
 endloop
endfacet
facet normal 0 0 0
 outer loop
  vertex 0.0 0.0 0.0
  vertex 16.739984152221574 -32.00822092931712 0.0
  vertex -2.3559142798597206e-14 -29.7 0.0
 endloop
endfacet
facet normal 0 0 0
 outer loop
  vertex -2.3559142798597206e-14 -29.7 0.0
  vertex 16.739984152221574 -32.00822092931712 0.0
  vertex 16.739984152221574 -32.00822092931712 3.5
 endloop
endfacet
facet normal 0 0 0
 outer loop
  vertex -2.3559142798597206e-14 -29.7 0.0
  vertex 16.739984152221574 -32.00822092931712 3.5
  vertex -2.3559142798597206e-14 -29.7 3.5
 endloop
endfacet
facet normal 0 0 0
 outer loop
  vertex 0.0 0.0 3.5
  vertex 16.739984152221574 -32.00822092931712 3.5
  vertex 33.193542534398226 -33.63799704078533 3.5
 endloop
endfacet
facet normal 0 0 0
 outer loop
  vertex 0.0 0.0 0.0
  vertex 33.193542534398226 -33.63799704078533 0.0
  vertex 16.739984152221574 -32.00822092931712 0.0
 endloop
endfacet
facet normal 0 0 0
 outer loop
  vertex 16.739984152221574 -32.00822092931712 0.0
  vertex 33.193542534398226 -33.63799704078533 0.0
  vertex 33.193542534398226 -33.63799704078533 3.5
 endloop
endfacet
facet normal 0 0 0
 outer loop
  vertex 16.739984152221574 -32.00822092931712 0.0
  vertex 33.193542534398226 -33.63799704078533 3.5
  vertex 16.739984152221574 -32.00822092931712 3.5
 endloop
endfacet
facet normal 0 0 0
 outer loop
  vertex 0.0 0.0 3.5
  vertex 33.193542534398226 -33.63799704078533 3.5
  vertex 49.07915020082269 -34.439579249332034 3.5
 endloop
endfacet
facet normal 0 0 0
 outer loop
  vertex 0.0 0.0 0.0
  vertex 49.07915020082269 -34.439579249332034 0.0
  vertex 33.193542534398226 -33.63799704078533 0.0
 endloop
endfacet
facet normal 0 0 0
 outer loop
  vertex 33.193542534398226 -33.63799704078533 0.0
  vertex 49.07915020082269 -34.439579249332034 0.0
  vertex 49.07915020082269 -34.439579249332034 3.5
 endloop
endfacet
facet normal 0 0 0
 outer loop
  vertex 33.193542534398226 -33.63799704078533 0.0
  vertex 49.07915020082269 -34.439579249332034 3.5
  vertex 33.193542534398226 -33.63799704078533 3.5
 endloop
endfacet
facet normal 0 0 0
 outer loop
  vertex 0.0 0.0 3.5
  vertex 49.07915020082269 -34.439579249332034 3.5
  vertex 64.12500000000001 -34.29460598986377 3.5
 endloop
endfacet
facet normal 0 0 0
 outer loop
  vertex 0.0 0.0 0.0
  vertex 64.12500000000001 -34.29460598986377 0.0
  vertex 49.07915020082269 -34.439579249332034 0.0
 endloop
endfacet
facet normal 0 0 0
 outer loop
  vertex 49.07915020082269 -34.439579249332034 0.0
  vertex 64.12500000000001 -34.29460598986377 0.0
  vertex 64.12500000000001 -34.29460598986377 3.5
 endloop
endfacet
facet normal 0 0 0
 outer loop
  vertex 49.07915020082269 -34.439579249332034 0.0
  vertex 64.12500000000001 -34.29460598986377 3.5
  vertex 49.07915020082269 -34.439579249332034 3.5
 endloop
endfacet
facet normal 0 0 0
 outer loop
  vertex 0.0 0.0 3.5
  vertex 64.12500000000001 -34.29460598986377 3.5
  vertex 78.07365327036833 -33.12525988691147 3.5
 endloop
endfacet
facet normal 0 0 0
 outer loop
  vertex 0.0 0.0 0.0
  vertex 78.07365327036833 -33.12525988691147 0.0
  vertex 64.12500000000001 -34.29460598986377 0.0
 endloop
endfacet
facet normal 0 0 0
 outer loop
  vertex 64.12500000000001 -34.29460598986377 0.0
  vertex 78.07365327036833 -33.12525988691147 0.0
  vertex 78.07365327036833 -33.12525988691147 3.5
 endloop
endfacet
facet normal 0 0 0
 outer loop
  vertex 64.12500000000001 -34.29460598986377 0.0
  vertex 78.07365327036833 -33.12525988691147 3.5
  vertex 64.12500000000001 -34.29460598986377 3.5
 endloop
endfacet
facet normal 0 0 0
 outer loop
  vertex 0.0 0.0 3.5
  vertex 78.07365327036833 -33.12525988691147 3.5
  vertex 90.6864446871747 -30.901071401240465 3.5
 endloop
endfacet
facet normal 0 0 0
 outer loop
  vertex 0.0 0.0 0.0
  vertex 90.6864446871747 -30.901071401240465 0.0
  vertex 78.07365327036833 -33.12525988691147 0.0
 endloop
endfacet
facet normal 0 0 0
 outer loop
  vertex 78.07365327036833 -33.12525988691147 0.0
  vertex 90.6864446871747 -30.901071401240465 0.0
  vertex 90.6864446871747 -30.901071401240465 3.5
 endloop
endfacet
facet normal 0 0 0
 outer loop
  vertex 78.07365327036833 -33.12525988691147 0.0
  vertex 90.6864446871747 -30.901071401240465 3.5
  vertex 78.07365327036833 -33.12525988691147 3.5
 endloop
endfacet
facet normal 0 0 0
 outer loop
  vertex 0.0 0.0 3.5
  vertex 90.6864446871747 -30.901071401240465 3.5
  vertex 101.74756589235088 -27.642880121820784 3.5
 endloop
endfacet
facet normal 0 0 0
 outer loop
  vertex 0.0 0.0 0.0
  vertex 101.74756589235088 -27.642880121820784 0.0
  vertex 90.6864446871747 -30.901071401240465 0.0
 endloop
endfacet
facet normal 0 0 0
 outer loop
  vertex 90.6864446871747 -30.901071401240465 0.0
  vertex 101.74756589235088 -27.642880121820784 0.0
  vertex 101.74756589235088 -27.642880121820784 3.5
 endloop
endfacet
facet normal 0 0 0
 outer loop
  vertex 90.6864446871747 -30.901071401240465 0.0
  vertex 101.74756589235088 -27.642880121820784 3.5
  vertex 90.6864446871747 -30.901071401240465 3.5
 endloop
endfacet
facet normal 0 0 0
 outer loop
  vertex 0.0 0.0 3.5
  vertex 101.74756589235088 -27.642880121820784 3.5
  vertex 111.06775803535422 -23.423651497465958 3.5
 endloop
endfacet
facet normal 0 0 0
 outer loop
  vertex 0.0 0.0 0.0
  vertex 111.06775803535422 -23.423651497465958 0.0
  vertex 101.74756589235088 -27.642880121820784 0.0
 endloop
endfacet
facet normal 0 0 0
 outer loop
  vertex 101.74756589235088 -27.642880121820784 0.0
  vertex 111.06775803535422 -23.423651497465958 0.0
  vertex 111.06775803535422 -23.423651497465958 3.5
 endloop
endfacet
facet normal 0 0 0
 outer loop
  vertex 101.74756589235088 -27.642880121820784 0.0
  vertex 111.06775803535422 -23.423651497465958 3.5
  vertex 101.74756589235088 -27.642880121820784 3.5
 endloop
endfacet
facet normal 0 0 0
 outer loop
  vertex 0.0 0.0 3.5
  vertex 111.06775803535422 -23.423651497465958 3.5
  vertex 118.48755004457254 -18.366055074989976 3.5
 endloop
endfacet
facet normal 0 0 0
 outer loop
  vertex 0.0 0.0 0.0
  vertex 118.48755004457254 -18.366055074989976 0.0
  vertex 111.06775803535422 -23.423651497465958 0.0
 endloop
endfacet
facet normal 0 0 0
 outer loop
  vertex 111.06775803535422 -23.423651497465958 0.0
  vertex 118.48755004457254 -18.366055074989976 0.0
  vertex 118.48755004457254 -18.366055074989976 3.5
 endloop
endfacet
facet normal 0 0 0
 outer loop
  vertex 111.06775803535422 -23.423651497465958 0.0
  vertex 118.48755004457254 -18.366055074989976 3.5
  vertex 111.06775803535422 -23.423651497465958 3.5
 endloop
endfacet
facet normal 0 0 0
 outer loop
  vertex 0.0 0.0 3.5
  vertex 118.48755004457254 -18.366055074989976 3.5
  vertex 123.87998722157299 -12.636925639544906 3.5
 endloop
endfacet
facet normal 0 0 0
 outer loop
  vertex 0.0 0.0 0.0
  vertex 123.87998722157299 -12.636925639544906 0.0
  vertex 118.48755004457254 -18.366055074989976 0.0
 endloop
endfacet
facet normal 0 0 0
 outer loop
  vertex 118.48755004457254 -18.366055074989976 0.0
  vertex 123.87998722157299 -12.636925639544906 0.0
  vertex 123.87998722157299 -12.636925639544906 3.5
 endloop
endfacet
facet normal 0 0 0
 outer loop
  vertex 118.48755004457254 -18.366055074989976 0.0
  vertex 123.87998722157299 -12.636925639544906 3.5
  vertex 118.48755004457254 -18.366055074989976 3.5
 endloop
endfacet
facet normal 0 0 0
 outer loop
  vertex 0.0 0.0 3.5
  vertex 123.87998722157299 -12.636925639544906 3.5
  vertex 127.15280347119118 -6.438936455450492 3.5
 endloop
endfacet
facet normal 0 0 0
 outer loop
  vertex 0.0 0.0 0.0
  vertex 127.15280347119118 -6.438936455450492 0.0
  vertex 123.87998722157299 -12.636925639544906 0.0
 endloop
endfacet
facet normal 0 0 0
 outer loop
  vertex 123.87998722157299 -12.636925639544906 0.0
  vertex 127.15280347119118 -6.438936455450492 0.0
  vertex 127.15280347119118 -6.438936455450492 3.5
 endloop
endfacet
facet normal 0 0 0
 outer loop
  vertex 123.87998722157299 -12.636925639544906 0.0
  vertex 127.15280347119118 -6.438936455450492 3.5
  vertex 123.87998722157299 -12.636925639544906 3.5
 endloop
endfacet
facet normal 0 0 0
 outer loop
  vertex 0.0 0.0 3.5
  vertex 127.15280347119118 -6.438936455450492 3.5
  vertex 128.25 0.0 3.5
 endloop
endfacet
facet normal 0 0 0
 outer loop
  vertex 0.0 0.0 0.0
  vertex 128.25 0.0 0.0
  vertex 127.15280347119118 -6.438936455450492 0.0
 endloop
endfacet
facet normal 0 0 0
 outer loop
  vertex 127.15280347119118 -6.438936455450492 0.0
  vertex 128.25 0.0 0.0
  vertex 128.25 0.0 3.5
 endloop
endfacet
facet normal 0 0 0
 outer loop
  vertex 127.15280347119118 -6.438936455450492 0.0
  vertex 128.25 0.0 3.5
  vertex 127.15280347119118 -6.438936455450492 3.5
 endloop
endfacet
endsolid insole
